# xmcd CD database file
#
# Track frame offsets:
#	150
#	18250
#	36600
#	56000
#	75075
#	91200
#	112250
#	128575
#	147550
#	163700
#	181150
#	199850
#	220825
#	236425
#	256350
#	279850
#	299925
#	315775
#
# Disc length: 4507 seconds
#
# Revision: 15
# Processed by: cddbd v1.5.2PL0 Copyright (c) Steve Scherf et al.
# Submitted via: CDex 1.82
#
DISCID=01119912
DTITLE=Various Artist - Kuschelrock 14 CD2
DYEAR=2000
DGENRE=Rock
TTITLE0=Ricky Martin and Meja - Private Emotion
TTITLE1=Whitney Houston - My Love Is Your Love
TTITLE2=Madonna - You'll See
TTITLE3=Melanie C - Never Be The Same Again
TTITLE4=Sasha - Let Me Be The One
TTITLE5=Anastacia - One More Chance
TTITLE6=Gabrielle - Rise
TTITLE7=Babyface feat. Stevie Wonder - How Come, How Long
TTITLE8=Jennifer Lopez - Theme From Mahagony (Do You Know Where You're Going To)
TTITLE9=Marc Anthony - You Sang To Me
TTITLE10=b.o.n. - Take My Heart
TTITLE11=Abba - I Have A Dream
TTITLE12=Sixpence None The Richer - Kiss Me
TTITLE13=Travis - Why Does It Allways Rain On Me
TTITLE14=Joe - I Wanna Know
TTITLE15=Lara Fabian - Adagio
TTITLE16=Boyzone - Every Day I Love You
TTITLE17=R. Kelly - If I Could Turn Back The Hands Of Time
EXTD=Kuschelrock 14 (2 Disc-Set]\nSony Music Entertainment (Germany) GmbH\nSMM 498316 2\nEAN: 5099749831629 YEAR: 2000
EXTT0=
EXTT1=
EXTT2=
EXTT3=
EXTT4=
EXTT5=
EXTT6=
EXTT7=
EXTT8=
EXTT9=
EXTT10=
EXTT11=
EXTT12=
EXTT13=
EXTT14=
EXTT15=
EXTT16=
EXTT17=
PLAYORDER=
